<?xml version="1.0" encoding="utf-8"?>
<!-- Generator: Adobe Illustrator 25.2.3, SVG Export Plug-In . SVG Version: 6.00 Build 0)  -->
<svg version="1.1" xmlns="http://www.w3.org/2000/svg" xmlns:xlink="http://www.w3.org/1999/xlink" x="0px" y="0px"
	 viewBox="0 0 1162.2 793.7" style="enable-background:new 0 0 1162.2 793.7;" xml:space="preserve">
<style type="text/css">
	.st0{fill:none;stroke:#1D1D1B;stroke-linecap:round;stroke-miterlimit:11.3386;}
	.st1{fill:none;stroke:#000000;stroke-linecap:round;stroke-miterlimit:11.3386;}
	.st2{fill:none;stroke:#1D1E1C;stroke-miterlimit:10;}
	.st3{enable-background:new    ;}
	.st4{fill:none;stroke:#1D1E1C;stroke-miterlimit:11.3386;}
	.st5{fill:none;stroke:#1D1E1C;stroke-linecap:round;stroke-miterlimit:11.3386;}
	.st6{fill-rule:evenodd;clip-rule:evenodd;fill:none;stroke:#1D1D1B;stroke-miterlimit:11.3386;}
</style>
<g id="Side">
	<path id="top_outsideCutPath_2_" vector-effect="non-scaling-stroke" class="st0" d="M31.18,642.98v19.29H14.17v69.14h17.01v19.29
		h100.53v17.01h69.14v-17.01h69.14v17.01h69.14v-17.01h69.14v17.01h69.14v-17.01h69.14v17.01h69.14v-17.01h69.14v17.01h69.14v-17.01
		h69.14v17.01h69.14v-17.01h69.14v17.01h69.14v-17.01h69.14h31.39V731.4h17.01v-69.14h-17.01v-19.29h-100.53h-69.14h-69.14h-69.14
		h-69.14h-69.14h-69.14h-69.14H477.4h-69.14h-69.14h-69.14h-69.14h-69.14H62.57H31.18z"/>
	<path id="left_outsideCutPath_3_" vector-effect="non-scaling-stroke" class="st0" d="M941,336.11h-85.73h-69.14h-69.14h-69.14
		h-69.14h-69.14h-69.14h-69.14h-69.14h-69.14H147.3v19.29h17.01v69.14H147.3v19.29h85.73v17.01h69.14v-17.01h69.14v17.01h69.14
		v-17.01h69.14v17.01h69.14v-17.01h69.14v17.01h69.14v-17.01h69.14v17.01h69.14v-17.01H941v-19.29h-17.01V355.4H941V336.11z"/>
	<path id="right_outsideCutPath_3_" vector-effect="non-scaling-stroke" class="st0" d="M941,179.48h-85.73h-69.14h-69.14h-69.14
		h-69.14h-69.14h-69.14h-69.14h-69.14h-69.14H147.3v19.29h17.01v69.14H147.3v19.29h85.73v17.01h69.14V287.2h69.14v17.01h69.14V287.2
		h69.14v17.01h69.14V287.2h69.14v17.01h69.14V287.2h69.14v17.01h69.14V287.2H941v-19.29h-17.01v-69.14H941V179.48z"/>
	<path id="bottom_outsideCutPath_2_" vector-effect="non-scaling-stroke" class="st0" d="M31.18,492.74v19.29H14.17v69.14h17.01
		v19.29h100.53v17.01h69.14v-17.01h69.14v17.01h69.14v-17.01h69.14v17.01h69.14v-17.01h69.14v17.01h69.14v-17.01h69.14v17.01h69.14
		v-17.01h69.14v17.01h69.14v-17.01h69.14v17.01h69.14v-17.01h69.14h31.39v-19.29h17.01v-69.14h-17.01v-19.29h-100.53h-69.14h-69.14
		h-69.14h-69.14h-69.14h-69.14h-69.14H477.4h-69.14h-69.14h-69.14h-69.14h-69.14H62.57H31.18z"/>
</g>
<g id="Back">
</g>
<g id="Front">
</g>
<g id="Vögel">
	<path class="st6" d="M1062.17,322.43l12.77-45.63l14.9-53.23l14.9-53.23l12.37-44.2c-8.28-13.6-15.96-23-15.96-23
		C968.83,31.21,941.65,49.8,941.65,49.8c-5.6,22.58,27.04,41.11,27.04,41.11c-0.32,21.59,22.4,31.94,22.4,31.94
		c-5.99,17.09,16.03,29.76,16.03,29.76c1.29,16.53,16.57,21.14,16.57,21.14c5.09,19.85,18.08,25.07,18.08,25.07
		c8.9,29.27,19.29,24.14,19.29,24.14c-35.4,17.43-42.55,51.16-42.55,51.16l-31.44-6.92c-21.02-4.84-9.62,12.67-9.62,12.67
		c-9.19,13.11,5.64,15.39,5.64,15.39c1.21,16.47,10.76,16.12,10.76,16.12c-4.04,8.03,3.27,15.81,3.27,15.81
		c-2.53,9.6,14.93,18.81,14.93,18.81c-5.38,5.6,5.36,20.6,5.36,20.6c12.04,21.99,24.37-47.15,24.37-47.15
		C1048.84,321.32,1055.68,322.21,1062.17,322.43z"/>
	<path class="st6" d="M334.8,38.33c-11.69-15.13-76.84-8.24-76.84-8.24c-19.55,2.08-36.39,2.46-50.79,1.8l-7.07,24.25l-15.46,53.07
		l-12.49,42.86c11.45-0.79,20.92-9.2,20.92-9.2c21.62,21.71,40.31,4.91,40.31,4.91c41.64,18.22,55.12-9.44,55.12-9.44
		c-22.85-19.47-26.92-31.86-26.92-31.86c37.22,23.23,56.62,2.32,56.62,2.32c40.59,21.79,69.31-2.53,69.31-2.53
		c84.65,47.9,112.07-4.83,112.07-4.83C408.83,87.17,334.8,38.33,334.8,38.33z"/>
</g>
</svg>
