<?xml version="1.0" encoding="utf-8"?>
<!-- Generator: Adobe Illustrator 25.2.3, SVG Export Plug-In . SVG Version: 6.00 Build 0)  -->
<svg version="1.1" xmlns="http://www.w3.org/2000/svg" xmlns:xlink="http://www.w3.org/1999/xlink" x="0px" y="0px"
	 viewBox="0 0 1162.2 793.7" style="enable-background:new 0 0 1162.2 793.7;" xml:space="preserve">
<style type="text/css">
	.st0{fill:none;stroke:#1D1D1B;stroke-linecap:round;stroke-miterlimit:11.3386;}
	.st1{fill:none;stroke:#000000;stroke-linecap:round;stroke-miterlimit:11.3386;}
	.st2{fill:none;stroke:#1D1E1C;stroke-miterlimit:10;}
	.st3{enable-background:new    ;}
	.st4{fill:none;stroke:#1D1E1C;stroke-miterlimit:11.3386;}
	.st5{fill:none;stroke:#1D1E1C;stroke-linecap:round;stroke-miterlimit:11.3386;}
	.st6{fill-rule:evenodd;clip-rule:evenodd;fill:none;stroke:#1D1D1B;stroke-miterlimit:11.3386;}
</style>
<g id="Side">
</g>
<g id="Back">
	<g>
		<g>
			<circle class="st1" cx="539.62" cy="301.71" r="28.35"/>
			<circle class="st1" cx="633.98" cy="301.71" r="28.35"/>
			<circle class="st1" cx="539.62" cy="396.85" r="28.35"/>
			<circle class="st1" cx="633.98" cy="396.85" r="28.35"/>
			<circle class="st1" cx="539.62" cy="491.99" r="28.35"/>
			<circle class="st1" cx="633.98" cy="491.99" r="28.35"/>
		</g>
	</g>
	<path id="back_outsideCutPath" vector-effect="non-scaling-stroke" class="st0" d="M19.87,0v85.73h17.01v69.14H19.87v69.14h17.01
		v69.14H19.87v69.14h17.01v69.14H19.87v69.14h17.01v69.14H19.87v69.14h17.01v69.14H19.87v85.73h117.54v-17.01h69.14v17.01h69.14
		v-17.01h69.14v17.01h69.14v-17.01h69.14v17.01h69.14v-17.01h69.14v17.01h69.14v-17.01h69.14v17.01h69.14v-17.01h69.14v17.01h69.14
		v-17.01h69.14v17.01h69.14h48.4v-85.73h-17.01v-69.14h17.01v-69.14h-17.01v-69.14h17.01v-69.14h-17.01v-69.14h17.01v-69.14h-17.01
		v-69.14h17.01v-69.14h-17.01V85.73h17.01V0h-117.54v17.01h-69.14V0h-69.14v17.01h-69.14V0h-69.14v17.01h-69.14V0h-69.14v17.01
		h-69.14V0H483.1v17.01h-69.14V0h-69.14v17.01h-69.14V0h-69.14v17.01h-69.14V0H68.27H19.87z"/>
</g>
<g id="Front">
</g>
<g id="Vögel">
</g>
</svg>
