<?xml version="1.0" encoding="utf-8"?>
<!-- Generator: Adobe Illustrator 25.2.3, SVG Export Plug-In . SVG Version: 6.00 Build 0)  -->
<svg version="1.1" xmlns="http://www.w3.org/2000/svg" xmlns:xlink="http://www.w3.org/1999/xlink" x="0px" y="0px"
	 viewBox="0 0 1162.2 793.7" style="enable-background:new 0 0 1162.2 793.7;" xml:space="preserve">
<style type="text/css">
	.st0{fill:none;stroke:#1D1D1B;stroke-linecap:round;stroke-miterlimit:11.3386;}
	.st1{fill:none;stroke:#000000;stroke-linecap:round;stroke-miterlimit:11.3386;}
	.st2{fill:none;stroke:#1D1E1C;stroke-miterlimit:10;}
	.st3{enable-background:new    ;}
	.st4{fill:none;stroke:#1D1E1C;stroke-miterlimit:11.3386;}
	.st5{fill:none;stroke:#1D1E1C;stroke-linecap:round;stroke-miterlimit:11.3386;}
	.st6{fill-rule:evenodd;clip-rule:evenodd;fill:none;stroke:#1D1D1B;stroke-miterlimit:11.3386;}
</style>
<g id="Side">
</g>
<g id="Back">
</g>
<g id="Front">
	<g>
		<circle id="Ellipse_1_3_" class="st2" cx="122.48" cy="690.68" r="8.5"/>
		<circle id="Ellipse_2_3_" class="st2" cx="1041.01" cy="690.68" r="8.5"/>
		<g>
			<circle id="Ellipse_3_24_" class="st2" cx="264.85" cy="695.73" r="8.5"/>
			<circle id="Ellipse_3_23_" class="st2" cx="264.85" cy="730.19" r="8.5"/>
			<rect x="246.85" y="608.15" class="st2" width="36" height="53.86"/>
		</g>
		<g>
			<circle id="Ellipse_3_22_" class="st2" cx="476.11" cy="695.73" r="8.5"/>
			<circle id="Ellipse_3_21_" class="st2" cx="476.11" cy="730.19" r="8.5"/>
			<rect x="458.11" y="608.15" class="st2" width="36" height="53.86"/>
		</g>
		<g>
			<circle id="Ellipse_3_20_" class="st2" cx="687.38" cy="695.73" r="8.5"/>
			<circle id="Ellipse_3_19_" class="st2" cx="687.38" cy="730.19" r="8.5"/>
			<rect x="669.38" y="608.15" class="st2" width="36" height="53.86"/>
		</g>
		<g>
			<circle id="Ellipse_3_18_" class="st2" cx="898.64" cy="695.73" r="8.5"/>
			<circle id="Ellipse_3_17_" class="st2" cx="898.64" cy="730.19" r="8.5"/>
			<rect x="880.64" y="608.15" class="st2" width="36" height="53.86"/>
		</g>
		<rect x="662.09" y="314.8" class="st2" width="72" height="53.86"/>
		<g class="st3">
			<path class="st4" d="M307.71,117.05l-1.37-4.55c-0.19-0.6-0.99-2.9-2.39-6.9l-7.02-19.95l-6.44-17.92
				c2.48,0.05,4.54,0.07,6.17,0.07c1.01,0,2.78-0.02,5.31-0.07l1.12,4.01c0.24,0.82,0.59,1.93,1.05,3.32l8.77,26.49
				c0.53,1.71,1.22,3.96,2.07,6.76l1.95-4.41c0.48-1.08,1.48-3.2,3-6.36l11.37-23.78c0.34-0.7,0.67-1.44,1.01-2.22
				c0.34-0.78,0.87-2.05,1.59-3.81c2.62,0.05,4.62,0.07,5.99,0.07c0.82,0,2.71-0.02,5.67-0.07l-3.11,5.78l-19.75,39.02l-2.09,4.52
				c-3.13-0.05-5.23-0.07-6.29-0.07C313.38,116.98,311.18,117,307.71,117.05z"/>
			<path class="st4" d="M378.49,66.86c3.59,0,7.03,0.49,10.33,1.48c3.3,0.99,6.23,2.6,8.78,4.82c2.55,2.23,4.48,4.82,5.78,7.79
				s1.95,6.42,1.95,10.37c0,3.71-0.61,7.26-1.84,10.64c-1.23,3.38-3.13,6.3-5.71,8.74c-2.58,2.45-5.72,4.26-9.41,5.44
				c-3.7,1.18-7.58,1.77-11.65,1.77c-3.85,0-7.56-0.54-11.11-1.63c-3.55-1.08-6.61-2.78-9.18-5.09s-4.4-4.97-5.51-7.97
				c-1.11-3-1.66-6.24-1.66-9.74c0-3.83,0.69-7.49,2.08-10.98c1.38-3.49,3.42-6.38,6.11-8.67c2.69-2.29,5.83-4.02,9.43-5.2
				C370.48,67.45,374.35,66.86,378.49,66.86z M377.92,74.56c-3.64,0-6.81,0.84-9.5,2.51c-2.7,1.67-4.73,3.96-6.09,6.87
				c-1.36,2.9-2.04,6.04-2.04,9.41c0,3.13,0.66,6.02,1.97,8.65c1.31,2.64,3.33,4.65,6.05,6.03c2.72,1.39,5.66,2.08,8.82,2.08
				c2.38,0,4.66-0.41,6.83-1.23s4.04-2.07,5.62-3.74c1.58-1.67,2.76-3.69,3.56-6.05s1.19-4.82,1.19-7.37c0-2.38-0.36-4.67-1.07-6.87
				c-0.71-2.19-1.81-4.08-3.31-5.66c-1.49-1.58-3.29-2.75-5.4-3.5C382.44,74.94,380.23,74.56,377.92,74.56z"/>
			<path class="st4" d="M444.34,88.87c3.32,0.05,6.5,0.07,9.54,0.07c3.97,0,7.29-0.02,9.94-0.07c-0.63,8.07-1.08,17.03-1.35,26.88
				c-4,0.79-7.61,1.35-10.84,1.68s-5.97,0.49-8.24,0.49c-4.24,0-8.17-0.45-11.79-1.34c-3.62-0.89-6.69-2.34-9.19-4.34
				s-4.41-4.63-5.73-7.9c-1.31-3.26-1.97-6.71-1.97-10.35c0-3.11,0.49-6.11,1.46-9s2.42-5.54,4.34-7.95s4.23-4.41,6.94-6.02
				c2.71-1.6,5.59-2.7,8.64-3.29c3.05-0.59,6.27-0.88,9.67-0.88c4.67,0,10.04,0.63,16.12,1.88c0.02,2.73,0.16,5.6,0.4,8.6
				c-5.69-1.9-10.83-2.85-15.43-2.85c-2.96,0-5.76,0.42-8.4,1.26s-4.91,2.15-6.83,3.92s-3.37,3.96-4.37,6.58
				c-1,2.61-1.5,5.32-1.5,8.11c0,3.11,0.57,5.88,1.72,8.33c1.14,2.45,3.06,4.34,5.76,5.69c2.7,1.35,5.79,2.02,9.29,2.02
				c1.28,0,2.78-0.11,4.52-0.34c1.73-0.23,3.54-0.62,5.42-1.17l0.59-12.68l-2.86-0.04c-1.62,0-3.67,0.04-6.15,0.11
				C444.23,93.05,444.34,90.58,444.34,88.87z"/>
			<path class="st4" d="M475.97,117.05l1.05-13.84l0.76-16.01l0.47-14.56v-4.91c5.95,0.05,12.15,0.07,18.61,0.07l6.94-0.04
				l10.44-0.04l-0.43,7.8l-3.43-0.18c-0.94-0.05-2.24-0.08-3.9-0.11s-3.36-0.04-5.09-0.04c-3.76,0-6.19,0.01-7.28,0.02
				c-1.1,0.01-2.75,0.05-4.97,0.13l-0.59,12.83c3.3,0.07,6.63,0.11,9.98,0.11c2.31,0,6.22-0.07,11.71-0.22
				c-0.19,2.19-0.36,4.82-0.51,7.88c-6.43-0.07-10.12-0.11-11.05-0.11c-2.84,0-6.38,0.07-10.62,0.22l-0.59,13.51l3.98,0.04
				c1.16,0,3.81-0.02,7.95-0.07l7.84-0.14l5.24-0.25c-0.24,2.79-0.41,5.43-0.51,7.91c-6.26-0.05-11.91-0.07-16.95-0.07l-11.89,0.04
				L475.97,117.05z"/>
			<path class="st4" d="M524.66,117.05c0.72-7.25,1.29-15.33,1.72-24.23c0.43-8.9,0.68-17.26,0.75-25.09
				c2.46,0.05,4.51,0.07,6.15,0.07c1.11,0,2.88-0.02,5.32-0.07c-0.32,4.34-0.61,9.27-0.88,14.81l-0.73,14.49
				c-0.22,4.14-0.38,8.26-0.48,12.36l6.22,0.07c5.84,0,9.67-0.02,11.51-0.05c1.83-0.04,3.64-0.1,5.43-0.2
				c-0.22,2.36-0.41,4.97-0.58,7.84c-6.34-0.05-11.76-0.07-16.26-0.07l-11.38,0.04L524.66,117.05z"/>
			<path class="st4" d="M565.72,117.05c0.22-3.28,0.34-6,0.36-8.17l1.7-1.88c0.07-0.07,1.1-1.3,3.07-3.69l17.72-21.21l5.6-6.94
				l-2.39-0.04h-0.9l-3.15-0.04h-5.5c-4.53,0-8.96,0.13-13.27,0.4c0.14-1.88,0.22-3.9,0.22-6.07c0-0.41-0.01-0.98-0.04-1.7
				c6.29,0.05,12.96,0.07,20.02,0.07l12.07-0.04l6.58-0.04c-0.19,2.63-0.31,5.31-0.36,8.06l-2.46,2.71
				c-0.48,0.53-0.95,1.08-1.41,1.66l-12.92,15.79l-11.33,13.51l2.9,0.04c8.16,0,13.4-0.02,15.74-0.07s4.9-0.16,7.67-0.33
				c-0.19,3.37-0.31,6.02-0.36,7.95c-6.91-0.05-13.25-0.07-19.01-0.07l-13.33,0.04L565.72,117.05z"/>
			<path class="st4" d="M611.33,117.05c2.51-4.43,5.45-9.91,8.82-16.44l9.51-18.25c2.96-5.64,5.42-10.51,7.38-14.63
				c3.13,0.05,5.35,0.07,6.65,0.07c2.29,0,4.53-0.02,6.72-0.07l5.16,14.78l11.23,30.57l1.55,3.97l-5.41-0.07
				c-1.25,0-3.36,0.02-6.31,0.07c-0.58-2.14-1.49-5.03-2.73-8.67s-2.3-6.59-3.17-8.85h-19.01c-2.82,5.73-5.56,11.57-8.23,17.52
				l-5.89-0.07C616.48,116.98,614.39,117,611.33,117.05z M634.02,61.48l0.29-5.85c1.61,0.05,2.88,0.07,3.79,0.07
				c0.92,0,2.12-0.02,3.61-0.07c-0.05,0.51-0.12,2.46-0.22,5.85c-1.45-0.05-2.64-0.07-3.58-0.07
				C637.11,61.41,635.81,61.43,634.02,61.48z M634.92,92.01h13.85l-5.68-16.72l-2.92,6.08L634.92,92.01z M646.24,61.48l0.33-5.85
				c1.59,0.05,2.84,0.07,3.76,0.07c0.92,0,2.12-0.02,3.61-0.07l-0.22,5.85c-1.45-0.05-2.64-0.07-3.58-0.07
				C649.32,61.41,648.02,61.43,646.24,61.48z"/>
			<path class="st4" d="M677.36,117.05l0.84-12.97c0.46-7.08,0.79-13.65,0.99-19.71c0.19-6.06,0.29-10.28,0.29-12.66l-0.04-3.97
				c2.84,0.05,4.84,0.07,6.02,0.07c0.89,0,2.7-0.02,5.44-0.07l-0.95,16.3l-0.11,3.76h24.6l0.45-9.77c0.1-3.35,0.15-5.56,0.15-6.62
				v-3.66l6.04,0.07c0.53,0,2.34-0.02,5.42-0.07l-1.19,19.69l-0.51,14.6l-0.13,8.56c-0.05,3.52-0.07,5.67-0.07,6.47l-5.64-0.07
				c-0.7,0-2.7,0.02-6,0.07c0.63-6.82,1.03-13.98,1.2-21.5h-24.67l-0.51,13.3l-0.15,8.2l-5.93-0.07
				C682.24,116.98,680.4,117,677.36,117.05z"/>
			<path class="st4" d="M738.19,117.05c0.72-7.25,1.29-15.33,1.72-24.23c0.43-8.9,0.68-17.26,0.75-25.09
				c2.46,0.05,4.51,0.07,6.15,0.07c1.11,0,2.88-0.02,5.32-0.07c-0.32,4.34-0.61,9.27-0.88,14.81l-0.73,14.49
				c-0.22,4.14-0.38,8.26-0.48,12.36l6.22,0.07c5.84,0,9.67-0.02,11.51-0.05c1.83-0.04,3.64-0.1,5.43-0.2
				c-0.22,2.36-0.41,4.97-0.58,7.84c-6.34-0.05-11.76-0.07-16.26-0.07l-11.38,0.04L738.19,117.05z"/>
			<path class="st4" d="M781.85,117.05l1.05-13.84l0.76-16.01l0.47-14.56v-4.91c5.95,0.05,12.15,0.07,18.61,0.07l6.94-0.04
				l10.44-0.04l-0.43,7.8l-3.43-0.18c-0.94-0.05-2.24-0.08-3.9-0.11s-3.36-0.04-5.09-0.04c-3.76,0-6.19,0.01-7.28,0.02
				c-1.1,0.01-2.75,0.05-4.97,0.13l-0.59,12.83c3.3,0.07,6.63,0.11,9.98,0.11c2.31,0,6.22-0.07,11.71-0.22
				c-0.19,2.19-0.36,4.82-0.51,7.88c-6.43-0.07-10.12-0.11-11.05-0.11c-2.84,0-6.38,0.07-10.62,0.22l-0.59,13.51l3.98,0.04
				c1.16,0,3.81-0.02,7.95-0.07l7.84-0.14l5.24-0.25c-0.24,2.79-0.41,5.43-0.51,7.91c-6.26-0.05-11.91-0.07-16.95-0.07l-11.89,0.04
				L781.85,117.05z"/>
			<path class="st4" d="M830.72,117.05c0.73-7.18,1.27-15.43,1.63-24.75s0.54-17.51,0.54-24.57c2.89,0.05,5.31,0.07,7.26,0.07
				c2.1,0,4.15-0.04,6.16-0.11c2.01-0.07,4.14-0.11,6.38-0.11c2.79,0,5.29,0.16,7.49,0.47s4.16,1.04,5.87,2.17s2.98,2.5,3.81,4.12
				s1.25,3.49,1.25,5.64c0,1.35-0.16,2.63-0.47,3.85c-0.31,1.22-0.78,2.36-1.39,3.43c-0.61,1.07-1.34,2.01-2.19,2.82
				c-0.84,0.81-1.68,1.45-2.51,1.92s-1.78,0.87-2.84,1.21c-1.06,0.34-2.48,0.75-4.26,1.23l2.46,4.77c0.79,1.52,2.3,4.24,4.52,8.17
				l3.65,6.4c0.19,0.34,0.77,1.43,1.73,3.29c-2.95-0.05-4.89-0.07-5.83-0.07c-1.16,0-3.2,0.02-6.12,0.07l-4-9.61
				c-0.7-1.47-1.54-3.2-2.53-5.2l-4.36-8.78c-0.43-0.82-1.03-2.05-1.8-3.69c1.61,0.29,3.09,0.43,4.41,0.43
				c2.07,0,3.96-0.34,5.68-1.01c1.71-0.67,3.03-1.72,3.94-3.13c0.92-1.41,1.37-2.94,1.37-4.61c0-1.01-0.2-1.95-0.6-2.82
				s-1.07-1.6-2.01-2.2s-2.06-0.99-3.36-1.16s-2.6-0.25-3.9-0.25c-0.72,0-1.71,0.01-2.96,0.04c-1.25,0.02-2.79,0.04-4.62,0.04
				l-0.65,14.85l-0.68,27.1l-5.61-0.07C835.29,116.98,833.47,117,830.72,117.05z"/>
		</g>
		<path id="front_outsideCutPath_1_" vector-effect="non-scaling-stroke" class="st5" d="M14.17,0v85.73v69.14v69.14v69.14v69.14
			v69.14v69.14v69.14v69.14v69.14v85.73h117.54h69.14h69.14h69.14h69.14h69.14h69.14h69.14h69.14h69.14h69.14h69.14h69.14h69.14
			h69.14h48.4v-85.73v-69.14v-69.14v-69.14v-69.14v-69.14v-69.14v-69.14v-69.14V85.73V0h-117.54h-69.14h-69.14h-69.14h-69.14h-69.14
			h-69.14h-69.14H477.4h-69.14h-69.14h-69.14h-69.14h-69.14H62.57H14.17z"/>
	</g>
</g>
<g id="Vögel">
</g>
</svg>
