<?xml version="1.0" encoding="utf-8"?>
<!-- Generator: Adobe Illustrator 25.2.3, SVG Export Plug-In . SVG Version: 6.00 Build 0)  -->
<svg version="1.1" xmlns="http://www.w3.org/2000/svg" xmlns:xlink="http://www.w3.org/1999/xlink" x="0px" y="0px"
	 viewBox="0 0 566.93 368.5" style="enable-background:new 0 0 566.93 368.5;" xml:space="preserve">
<style type="text/css">
	.st0{enable-background:new    ;}
	.st1{fill:#4D4C4C;}
	.st2{fill:#4E4C4C;}
	.st3{fill:#26A737;}
	.st4{display:none;}
	.st5{display:inline;}
	.st6{fill:none;stroke:#1E1F1D;stroke-miterlimit:10;}
	.st7{fill:none;stroke:#1E1F1D;stroke-miterlimit:11.3386;}
	.st8{fill:none;stroke:#1E1E1C;stroke-linecap:round;stroke-miterlimit:11.3386;}
	.st9{fill-rule:evenodd;clip-rule:evenodd;fill:#3C3C3B;}
	.st10{fill-rule:evenodd;clip-rule:evenodd;}
	.st11{display:inline;fill-rule:evenodd;clip-rule:evenodd;fill:#EFE508;}
</style>
<g id="Druck">
</g>
<g id="Druck_x5F_Schrift" class="st4">
</g>
<g id="Technische_Zeichnung">
</g>
<g id="Vögel_x5F_Druck">
	<path class="st10" d="M220.31,287.32v-47.38v-55.28v-55.28V83.5c-11.64-10.87-21.57-17.85-21.57-17.85
		C51.94,32.03,30.77,57.26,30.77,57.26c0.69,23.26,37.12,32.3,37.12,32.3c5.51,20.88,30.18,24.72,30.18,24.72
		c-1.16,18.07,23.46,24.34,23.46,24.34c5.7,15.57,21.65,15.89,21.65,15.89c10.26,17.74,24.16,19.27,24.16,19.27
		c16.46,25.79,25.08,18.05,25.08,18.05c-29.39,26.33-27.19,60.73-27.19,60.73l-32.14,1.81c-21.55,1-5.85,14.79-5.85,14.79
		c-5.31,15.1,9.58,13.3,9.58,13.3c5.61,15.53,14.71,12.62,14.71,12.62c-1.73,8.83,7.41,14.34,7.41,14.34
		c0.15,9.92,19.45,14.09,19.45,14.09c-3.67,6.84,10.71,18.39,10.71,18.39c17.52,17.93,10.76-51.98,10.76-51.98
		C207.17,289.84,214,288.86,220.31,287.32z"/>
	<path class="st10" d="M375.02,120.62c-15.46-11.25-76.08,13.58-76.08,13.58c-18.19,7.46-34.25,12.55-48.26,15.94v25.26v55.28v44.64
		c10.77-3.96,17.51-14.69,17.51-14.69c26.83,14.79,40.07-6.56,40.07-6.56c45.08,5.84,50.27-24.49,50.27-24.49
		c-27.38-12.3-34.76-23.06-34.76-23.06c42.24,11.89,55.01-13.62,55.01-13.62c45.06,9.57,65.83-21.82,65.83-21.82
		c94.67,22.31,106.24-35.99,106.24-35.99C459.75,146.81,375.02,120.62,375.02,120.62z"/>
</g>
<g id="Hinweise" class="st4">
</g>
</svg>
